<?xml version="1.0" encoding="UTF-8"?>
<!DOCTYPE svg PUBLIC "-//W3C//DTD SVG 1.1//EN" "http://www.w3.org/Graphics/SVG/1.1/DTD/svg11.dtd">
<svg xmlns="http://www.w3.org/2000/svg" version="1.1" width="96px" height="96px" style="shape-rendering:geometricPrecision; text-rendering:geometricPrecision; image-rendering:optimizeQuality; fill-rule:evenodd; clip-rule:evenodd" xmlns:xlink="http://www.w3.org/1999/xlink">
<g><path style="opacity:0.921" fill="#ffffff" d="M 24.5,7.5 C 30.8846,6.85606 33.7179,9.85606 33,16.5C 33.4652,17.9308 34.2986,19.0975 35.5,20C 41.8734,23.419 48.3734,23.919 55,21.5C 55.1971,16.9145 55.6971,12.4145 56.5,8C 58.7695,7.2419 60.9361,7.40857 63,8.5C 63.3333,11.8333 63.6667,15.1667 64,18.5C 68.1402,16.0503 70.9735,12.5503 72.5,8C 77.6622,6.57637 79.8288,8.4097 79,13.5C 77.0545,20.6124 72.5545,25.2791 65.5,27.5C 68.2127,39.067 75.3794,44.7337 87,44.5C 88.8406,50.4938 86.6739,52.8271 80.5,51.5C 81.3146,55.159 83.4813,57.8256 87,59.5C 87.8461,67.7701 84.6794,69.6034 77.5,65C 74.7272,62.6166 72.5605,59.7833 71,56.5C 68.7693,59.7949 66.9359,63.2949 65.5,67C 70.2746,72.9725 71.9412,79.6391 70.5,87C 68.2305,87.7581 66.0639,87.5914 64,86.5C 62.8782,82.5073 61.3782,78.6739 59.5,75C 53.1266,71.581 46.6266,71.081 40,73.5C 39.8029,78.0855 39.3029,82.5855 38.5,87C 36.2305,87.7581 34.0639,87.5914 32,86.5C 31.9069,72.5079 29.2403,72.1746 24,85.5C 21.282,88.0701 18.6153,88.0701 16,85.5C 16.3164,76.5531 20.483,69.8865 28.5,65.5C 26.511,60.341 23.511,55.841 19.5,52C 15.5787,51.797 11.7454,51.297 8,50.5C 6.15944,44.5062 8.3261,42.1729 14.5,43.5C 14.3821,39.2116 12.2154,36.545 8,35.5C 7.15395,27.2299 10.3206,25.3966 17.5,30C 20.07,32.0673 22.07,34.5673 23.5,37.5C 26.5739,35.1382 28.2406,31.9716 28.5,28C 26.6296,25.0893 25.1296,21.9226 24,18.5C 23.2446,14.7446 23.4113,11.0779 24.5,7.5 Z M 44.5,40.5 C 53.8504,40.3654 56.517,44.532 52.5,53C 43.9562,56.3224 40.1229,53.4891 41,44.5C 41.6897,42.6498 42.8564,41.3164 44.5,40.5 Z"/></g>
</svg>
